{"title":"Ronin.1998.BRRip.XviD.MP3-RARBG","uid":12159637,"size":1647611406,"categoryP":"video","categoryS":"movies","magnet":"?xt=urn:btih:94bccac6e3e3de47c68d4c8242b57b2c19fef723&amp;dn=Ronin.1998.BRRip.XviD.MP3-RARBG&amp;tr=udp%3A%2F%2Ftracker.openbittorrent.com%3A80&amp;tr=udp%3A%2F%2Fopen.demonii.com%3A1337&amp;tr=udp%3A%2F%2Ftracker.coppersurfer.tk%3A6969&amp;tr=udp%3A%2F%2Fexodus.desync.com%3A6969","seeders":0,"leechers":0,"uploader":null,"files":5,"time":1437856666,"description":"Video\nID                                       : 0\nFormat                                   : MPEG-4 Visual\nFormat profile                           : Simple@L5\nFormat settings, BVOP                    : No\nFormat settings, QPel                    : No\nFormat settings, GMC                     : No warppoints\nFormat settings, Matrix                  : Default (H.263)\nCodec ID                                 : XVID\nCodec ID/Hint                            : XviD\nDuration                                 : 2h 1mn\nBit rate                                 : 1 600 Kbps\nWidth                                    : 720 pixels\nHeight                                   : 306 pixels\nDisplay aspect ratio                     : 2.35:1\nFrame rate                               : 23.976 fps\nColor space                              : YUV\nChroma subsampling                       : 4:2:0\nBit depth                                : 8 bits\nScan type                                : Progressive\nCompression mode                         : Lossy\nBits/(Pixel*Frame)                       : 0.303\nStream size                              : 1.36 GiB (89%)\nTitle                                    : RARBG.COM - Ronin.1998.BRRip.XviD.MP3-RARBG\nWriting library                          : Lavc56.19.100\n\nAudio\nID                                       : 1\nFormat                                   : MPEG Audio\nFormat version                           : Version 1\nFormat profile                           : Layer 3\nMode                                     : Joint stereo\nMode extension                           : MS Stereo\nCodec ID                                 : 55\nCodec ID/Hint                            : MP3\nDuration                                 : 2h 1mn\nBit rate mode                            : Constant\nBit rate                                 : 192 Kbps\nChannel(s)                               : 2 channels\nSampling rate                            : 48.0 KHz\nCompression mode                         : Lossy\nStream size                              : 167 MiB (11%)\nAlignment                                : Aligned on interleaves\nInterleave, duration                     : 24 ms (0.58 video frame)\nInterleave, preload duration             : 24 ms\nTitle                                    : RARBG.COM - Ronin.1998.BRRip.XviD.MP3-RARBG\nWriting library                          : LAME3.99.5","torrent":{"xt":"urn:btih:94bccac6e3e3de47c68d4c8242b57b2c19fef723","amp;dn":"Ronin.1998.BRRip.XviD.MP3-RARBG","amp;tr":["udp%3A%2F%2Ftracker.openbittorrent.com%3A80","udp%3A%2F%2Fopen.demonii.com%3A1337","udp%3A%2F%2Ftracker.coppersurfer.tk%3A6969","udp%3A%2F%2Fexodus.desync.com%3A6969"],"infoHash":"94bccac6e3e3de47c68d4c8242b57b2c19fef723","infoHashBuffer":{"type":"Buffer","data":[148,188,202,198,227,227,222,71,198,141,76,130,66,181,123,44,25,254,247,35]},"announce":[],"urlList":[]}}